<svg t="1690532647052" class="icon" viewBox="0 0 1024 1024" version="1.1" xmlns="http://www.w3.org/2000/svg"
  p-id="12486" width="24" height="24">
  <path
    d="M864.958262 535.981181 183.844633 535.981181c-14.46034 0-26.196639-9.097192-26.196639-20.305465 0-11.206226 11.736299-20.304442 26.196639-20.304442l681.113629 0c14.485923 0 26.196639 9.098215 26.196639 20.304442C891.153878 526.883989 879.444185 535.981181 864.958262 535.981181L864.958262 535.981181z"
    fill="currentColor" p-id="12487"></path>
  <path d="M298.435485 656.57884 388.782166 656.57884 388.782166 746.927567 298.435485 746.927567Z" fill="currentColor"
    p-id="12488"></path>
  <path
    d="M230.035652 454.328509l251.951289 0L481.986941 202.37722 230.035652 202.37722 230.035652 454.328509 230.035652 454.328509zM269.265118 241.605663l173.493379 0 0 173.493379L269.265118 415.099043 269.265118 241.605663 269.265118 241.605663z"
    fill="currentColor" p-id="12489"></path>
  <path d="M310.836933 283.183618 401.183614 283.183618 401.183614 373.529275 310.836933 373.529275Z"
    fill="currentColor" p-id="12490"></path>
  <path
    d="M793.964348 202.376197 542.011013 202.376197l0 251.951289 251.953336 0L793.964348 202.376197 793.964348 202.376197zM754.734882 415.099043 581.242526 415.099043 581.242526 241.60464l173.492356 0L754.734882 415.099043 754.734882 415.099043z"
    fill="currentColor" p-id="12491"></path>
  <path d="M622.818433 283.183618 713.165114 283.183618 713.165114 373.530298 622.818433 373.530298Z"
    fill="currentColor" p-id="12492"></path>
  <path
    d="M230.035652 825.696562l251.951289 0L481.986941 573.743226 230.035652 573.743226 230.035652 825.696562 230.035652 825.696562zM269.265118 612.972693l173.493379 0L442.758498 786.465049 269.265118 786.465049 269.265118 612.972693 269.265118 612.972693z"
    fill="currentColor" p-id="12493"></path>
  <path
    d="M637.322775 718.819392 637.322775 675.000398 681.1387 675.000398 681.1387 630.060883 637.322775 630.060883 637.322775 586.247005 592.38326 586.247005 592.38326 630.060883 548.564265 630.060883 548.564265 675.000398 592.38326 675.000398 592.38326 718.819392Z"
    fill="currentColor" p-id="12494"></path>
  <path
    d="M775.511067 724.437343 731.692073 724.437343 731.692073 680.618349 686.752558 680.618349 686.752558 724.437343 642.940726 724.437343 642.940726 769.376858 686.752558 769.376858 686.752558 813.190737 731.692073 813.190737 731.692073 769.376858 775.511067 769.376858Z"
    fill="currentColor" p-id="12495"></path>
  <path
    d="M786.744923 691.251523 786.744923 592.382748 783.373129 592.382748 783.373129 580.629054 684.508447 580.629054 684.508447 625.568569 741.805408 625.568569 741.805408 691.251523Z"
    fill="currentColor" p-id="12496"></path>
  <path
    d="M586.203514 719.941959 541.261952 719.941959 541.261952 818.810734 544.632723 818.810734 586.203514 818.810734 643.502521 818.810734 643.502521 773.869173 586.203514 773.869173Z"
    fill="currentColor" p-id="12497"></path>
  <path
    d="M121.005446 266.569218c9.097192 0 16.477276-7.379061 16.477276-16.477276L137.482723 131.09985 247.326457 131.09985c9.096169 0 16.476253-7.379061 16.476253-16.477276 0-9.096169-7.380084-16.477276-16.476253-16.477276L121.005446 98.145297c-9.097192 0-16.477276 7.380084-16.477276 16.477276l0 135.469368C104.529193 259.189134 111.909278 266.569218 121.005446 266.569218L121.005446 266.569218z"
    fill="currentColor" p-id="12498"></path>
  <path
    d="M928.976298 98.147344 802.656311 98.147344c-9.096169 0-16.477276 7.379061-16.477276 16.477276 0 9.096169 7.381108 16.476253 16.477276 16.476253l109.845781 0 0 118.994138c0 9.096169 7.379061 16.476253 16.477276 16.476253 9.096169 0 16.477276-7.380084 16.477276-16.476253L945.456644 114.622574C945.453574 105.526405 938.072467 98.147344 928.976298 98.147344L928.976298 98.147344z"
    fill="currentColor" p-id="12499"></path>
  <path
    d="M246.145561 892.90322 136.302851 892.90322 136.302851 773.909082c0-9.098215-7.380084-16.479323-16.477276-16.479323s-16.477276 7.381108-16.477276 16.479323l0 135.468344c0 9.098215 7.380084 16.480346 16.477276 16.480346l126.319987 0c9.097192 0 16.477276-7.383154 16.477276-16.480346C262.622838 900.284327 255.242753 892.90322 246.145561 892.90322L246.145561 892.90322z"
    fill="currentColor" p-id="12500"></path>
  <path
    d="M928.976298 757.430782c-9.096169 0-16.477276 7.381108-16.477276 16.480346l0 118.991068L802.656311 892.902196c-9.096169 0-16.477276 7.381108-16.477276 16.477276 0 9.098215 7.381108 16.479323 16.477276 16.479323l126.319987 0c9.096169 0 16.477276-7.381108 16.477276-16.479323L945.453574 773.909082C945.453574 764.81189 938.072467 757.430782 928.976298 757.430782L928.976298 757.430782z"
    fill="currentColor" p-id="12501"></path>
</svg>