<svg t="1690626928716" class="icon" viewBox="0 0 1102 1024" version="1.1" xmlns="http://www.w3.org/2000/svg" p-id="6645"
  width="32" height="32">
  <path
    d="M472.615385 39.384615v393.846154l-181.169231-181.169231c-15.753846-15.753846-39.384615-15.753846-55.138462 0l-55.138461 55.138462c-15.753846 15.753846-15.753846 39.384615 0 55.138462l322.953846 322.953846s23.630769 15.753846 55.138461 15.753846c23.630769 0 47.261538-15.753846 55.138462-15.753846l322.953846-322.953846c15.753846-15.753846 15.753846-39.384615 0-55.138462l-55.138461-55.138462c-15.753846-15.753846-39.384615-15.753846-55.138462 0l-181.169231 181.169231v-393.846154c0-23.630769-15.753846-39.384615-39.384615-39.384615h-78.769231c-39.384615 0-55.138462 15.753846-55.138461 39.384615z"
    fill="#02C684" p-id="6646"></path>
  <path
    d="M1063.384615 630.153846h-78.76923c-23.630769 0-39.384615 15.753846-39.384616 39.384616v118.153846c0 47.261538-31.507692 78.769231-78.769231 78.76923h-630.153846c-47.261538 0-78.769231-31.507692-78.76923-78.76923v-118.153846c0-23.630769-15.753846-39.384615-39.384616-39.384616h-78.769231c-23.630769 0-39.384615 15.753846-39.384615 39.384616v196.923076c0 86.646154 70.892308 157.538462 157.538462 157.538462h787.692307c86.646154 0 157.538462-70.892308 157.538462-157.538462v-196.923076c0-23.630769-23.630769-39.384615-39.384616-39.384616z"
    fill="#02C684" p-id="6647"></path>
</svg>